<svg xmlns="http://www.w3.org/2000/svg" xml:space="preserve" class="injected-svg js-svg-injector" data-parent="#SVGeasyStart" style="enable-background:new 0 0 1342.8 1166.1" viewBox="0 0 1342.8 1166.1"><style>.app-user-0{fill:#e7eaf3}.app-user-1{fill:#fff}.app-user-2{fill:#fff;stroke:#1e2022}.app-user-3{fill:#377dff}.app-user-4{fill:#1e2022}.app-user-5{fill:none;stroke:#1e2022}.app-user-6{fill:none;stroke:#e7eaf3}</style><path d="M160.5 485c87.6-86.8 198.9-157.7 303.2-228.2 50.1-33.9 100.8-67 151.8-99.8 49.1-31.5 98.8-62.2 149.7-91.3 173.5-99.4 489.7-103.6 557.5 112.6.9 2.9 1.8 5.9 2.6 8.8 28.8 103.8 16.6 218.8 2.4 323.7-.5 3.8-1 7.5-1.6 11.3-9.6 67.7-20.4 135.5-20.6 203.9-.2 40.7 2.7 81.8 15.2 120.9 19.5 61.5 35.8 128.2-3.6 186.1-32.7 48.1-89.1 80.6-145.7 101.7-84.5 31.5-178.3 37.9-268.2 25.5-114.9-15.8-220.6-63-334.3-82.9-66.5-11.6-133.5-21-200.7-28.4-95.2-10.5-218.1 1.6-296.1-59-79.6-61.9-81.3-167-61.5-253C33.7 636.7 89.2 555.6 160.5 485z" class="app-user-0 fill-gray-300" opacity=".3"/><path d="M1065.3 610.5v427.7c0 31.3-25.3 56.6-56.6 56.6H676.3c-31.3 0-56.6-25.3-56.6-56.6V189.5c0-31.3 25.3-56.6 56.6-56.6h332.4c31.3 0 56.6 25.3 56.6 56.6v421" class="app-user-1 fill-white"/><path d="M866.6 610.8c-6.7 3.7-64.8 100.3-61.3 179.5 9.1-2.6 30.5-13.8 30.5-13.8l9.8-5.8 6.2-33.8 8.1-38.3 15-48 18-35 14-20-13 4-27.3 11.2zM1032.3 760v2.1c.6 22.3 7.4 154-84 207.9 41 46 108 5 108 5l9-10V808l-2-4-11-40-14 1-6-5z" class="app-user-0 fill-gray-300"/><path d="m983.4 1112.7-73.5-101.8s-48.1-43.5-67.4-58.2c-.2 15 .8 122.6 5.4 159.9h135.5z" class="app-user-3 fill-primary"/><path d="m983.4 1112.7-73.5-101.8s-48.1-43.5-67.4-58.2c-.2 15 .8 122.6 5.4 159.9h135.5z" class="app-user-4 fill-dark" opacity=".2"/><path d="M1051.6 1096.4h13.6V962.5c-34.4 11-201.4 12-222.8-9.7 0 1.7 32 88.6 89.7 156h119.4v-12.4z" class="app-user-3 fill-primary"/><path stroke-linecap="round" stroke-linejoin="round" stroke-width="2.5" d="M804.8 692.6c-3.6 4-3.7 11.7-3.7 11.7-4.5-13.4-102.7-257.7-102.7-257.7s-20.3 8.6 3.1 54.8c-7.6 4.5-28.7 21.4-20 48.6 6.6 20.4 21 27.6 30 27.6-1.5 15.3 31.2 171.6 35.5 179.1 10 17.7 29.3 37 40.7 37.5 13 .7 39.6-11.3 57.7-22.8" class="app-user-5 fill-none stroke-dark"/><path stroke-linecap="round" stroke-miterlimit="10" stroke-width="2.5" d="M905.9 595.6c-49.4 9.2-112.1 67.3-110.5 79.8 1.5 11.8 32.3 46 55.7 62.3" class="app-user-5 fill-none stroke-dark"/><path stroke-linecap="round" stroke-miterlimit="10" stroke-width="2.5" d="M936.9 568.1c-106 59.8-108 366-94.4 384.7 13.3 18.4 171.8 23.2 222.8 10.5M1061.4 604.5c-14.5-21.2-33.7-36.6-58.5-43M1052.7 763.5c2.7 11.5 8.2 33 13.7 53.4" class="app-user-5 fill-none stroke-dark"/><path stroke-linecap="round" stroke-miterlimit="10" stroke-width="2.5" d="M1020.8 737.7c5.2 14.9 10.8 25.2 14.9 26.5 5 1.6 16.4 0 29.6-3.5M1065.3 607.1c-8.8-6.4-17.6-9.6-26-7.6M936.9 568.1v-17.2M1002.8 519.4v71.4c0 5.8-15.5 9.3-31.5 9.8" class="app-user-5 fill-none stroke-dark"/><path stroke-linecap="round" stroke-miterlimit="10" stroke-width="2.5" d="M1002.6 519.4c6 3.3 15.1-.2 20.8-8.3 6.1-8.5 6.2-18.9.3-23.1-1.6-1.1-3.4-1.7-5.3-1.8M907.8 446.8c-1 2.1-2 4.3-2.8 6.6-16.1 40.8-4.6 83.5 25.8 95.5 2 .8 4.1 1.5 6.2 2" class="app-user-5 fill-none stroke-dark"/><path stroke-linecap="round" stroke-miterlimit="10" stroke-width="2.5" d="M1040.4 495.4c12.3-3.7 27.7-12.4 27.7-30 0-11-10.3-23.1-12.2-36.9-1-7 1.2-36.1-7-46-17-20.4-27-16.3-40-21-22.6-8.3-31.3-22-50-22-21.2 0-29.8 11-45 11-17.4 0-31.6-8-56-8-13 0-30 17-30 32 0 35.5 33 30.4 33 39 0 6-2 10.8-2 19 0 4.4 2.3 8 5.6 10.8" class="app-user-5 fill-none stroke-dark"/><path d="M673.3 333.3h49.9c14.8 0 26.8 12 26.8 26.8V410c0 14.8-12 26.8-26.8 26.8h-49.9c-14.8 0-26.8-12-26.8-26.8v-49.9c0-14.8 12-26.8 26.8-26.8z" class="app-user-0 fill-gray-300"/><circle cx="737.6" cy="341.5" r="21.2" class="app-user-3 fill-primary"/><path stroke-miterlimit="10" stroke-width="2.5" d="M1010.4 102.5H674.5c-45.2 0-81.9 36.7-81.9 81.9v858.8c0 45.2 36.7 81.9 81.9 81.9h335.9c45.2 0 81.9-36.7 81.9-81.9V184.4c0-45.3-36.6-81.9-81.9-81.9zm54.9 508v427.7c0 31.3-25.3 56.6-56.6 56.6H676.3c-31.3 0-56.6-25.3-56.6-56.6V189.5c0-31.3 25.3-56.6 56.6-56.6h55.1v17.4c0 8.7 7 15.7 15.7 15.7h190.8c8.7 0 15.7-7 15.7-15.7v-17.4h55.1c31.3 0 56.6 25.3 56.6 56.6v421z" class="app-user-2 fill-white stroke-dark"/><path d="M1183.8 229.5h-121.3c-21.9 0-39.7 17.8-39.7 39.7 0 11.5 4.9 21.9 12.8 29.1v26.6l17.2-17.2c3.1.8 6.4 1.2 9.7 1.2h121.3c21.9 0 39.7-17.8 39.7-39.7s-17.8-39.7-39.7-39.7z" class="app-user-3 fill-primary"/><circle cx="1082.2" cy="270.5" r="10" class="app-user-1 fill-white"/><circle cx="1123.1" cy="270.5" r="10" class="app-user-1 fill-white"/><circle cx="1164.1" cy="270.5" r="10" class="app-user-1 fill-white"/><path stroke-linecap="round" stroke-miterlimit="10" stroke-width="9" d="M543.4 1012.8c2-5.7 3.2-12.8 3.2-21.7 0-133.5-158-97.5-158-208.4" class="app-user-5 fill-none stroke-dark"/><path d="M416.3 781.9c8.5 11.2-20.1 23.9-24.3 18.6s15.1-30.5 24.3-18.6zM556.2 585.6c10.4 13.6-20.4 26-25.4 19.5s14.3-34 25.4-19.5zM547.8 641.8c8.3 15-32 27.1-36 19.9s27.2-35.9 36-19.9zM550.3 684.5c10.9 13.2-26.6 32.4-31.8 26.1-5.2-6.3 20.2-40.2 31.8-26.1zM563 732.5c10.9 13.2-26.6 32.4-31.8 26.1-5.1-6.3 20.2-40.2 31.8-26.1zM574.2 777.1c9.9 12-22.9 28.4-27.6 22.6s17-35.4 27.6-22.6zM589.2 826.1c9.9 12-22.9 28.4-27.6 22.6s17.1-35.5 27.6-22.6zM361.8 773.1c3.6-13.6 31.3 1.3 29.6 7.8-1.7 6.4-33.4 6.7-29.6-7.8zM361.4 821c-1.8-13.9 29.5-10.5 30.3-3.8.8 6.7-28.5 18.7-30.3 3.8zM389 864.5c-9.1-10.7 18.9-25 23.3-19.9s-13.6 31.3-23.3 19.9zM423.6 887.9c-5.5-12.9 25.5-18.1 28.1-11.9s-22.2 25.8-28.1 11.9zM470.2 912.3c-5.5-12.9 25.5-18.1 28.1-11.9s-22.3 25.8-28.1 11.9z" class="app-user-3 fill-primary"/><path d="M505 947.8c-1.2-14 29.9-9.3 30.5-2.6s-29.2 17.6-30.5 2.6z"/><path d="M431.3 811.9c11 8.8-13.8 28.1-19.1 23.9s7.4-33.3 19.1-23.9zM456.3 837c12.1 7.2-9.7 29.7-15.5 26.3-5.9-3.4 2.5-34 15.5-26.3zM501.9 861.6c11.4 8.3-12.5 28.7-18 24.7s5.9-33.6 18-24.7z" class="app-user-3 fill-primary"/><path stroke-linecap="round" stroke-miterlimit="10" stroke-width="9" d="M540.4 1012.5c13.9-22.9 30.8-57.5 30.8-96.6 0-107.8-60.2-161.8-60.2-238.8 0-14.6 1.3-60.4 24.5-79" class="app-user-5 fill-none stroke-dark"/><path stroke-linecap="round" stroke-miterlimit="10" stroke-width="2.5" d="M588.6 1164.9h-88.4c-4.1 0-7.8-2.6-9.1-6.6l-44-133.3c-1.6-5 1.1-10.4 6.1-12.1 1-.3 2-.5 3-.5H633c5.3 0 9.6 4.3 9.6 9.6 0 1-.2 2-.5 3l-44.4 133.3c-1.3 4-5 6.6-9.1 6.6z" class="app-user-2 fill-white stroke-dark"/><path d="M581.4 1012.8c2.5 3.7 21.1 108.6-74.7 152.1 26.3-.9 33.2.6 33.2.6h50l8-5 19-57 13.5-42 12.5-39-3-7.1-6-3.9-52.5 1.3z" class="app-user-0 fill-gray-300"/><path d="M603.5 882.1c5.2 14.7-31.2 18.9-33.6 11.9-2.6-7 28-27.6 33.6-11.9zM544 903.8c11.5-10.4 29.5 21.5 23.9 26.5-5.5 5-36.2-15.3-23.9-26.5zM534.7 864c7.7-13.5 34.7 11.1 31.1 17.5-3.7 6.5-39.3-3-31.1-17.5zM526 816.8c7.7-13.5 34.7 11.1 31.1 17.5s-39.3-3-31.1-17.5zM510.5 779.2c5-14.8 36.2 4.3 33.8 11.4s-39.1 4.4-33.8-11.4zM488.6 727.5c7.3-13.8 35 10.1 31.5 16.7s-39.3-2-31.5-16.7zM478.2 669.9c8.5-13 34 13.3 29.9 19.5s-39-5.6-29.9-19.5zM483.3 620.3c8.5-13 34 13.3 29.9 19.5-4.1 6.3-39-5.6-29.9-19.5zM603.5 933.2c5.2 14.7-31.2 18.9-33.6 11.9-2.6-7.1 28-27.6 33.6-11.9z" class="app-user-3 fill-primary"/><path stroke-linecap="round" stroke-miterlimit="10" stroke-width="2.5" d="M925.8 458.5c0 5-1 21-7 25M922.3 510c10 0 19-6 19-10" class="app-user-5 fill-none stroke-dark"/><ellipse cx="947.8" cy="461" class="app-user-4 fill-dark" rx="3.5" ry="6"/><path stroke-linecap="round" stroke-miterlimit="10" stroke-width="2.5" d="M588.6 1164.9h-88.4c-4.1 0-7.8-2.6-9.1-6.6l-44-133.3c-1.6-5 1.1-10.4 6.1-12.1 1-.3 2-.5 3-.5H633c5.3 0 9.6 4.3 9.6 9.6 0 1-.2 2-.5 3l-44.4 133.3c-1.3 4-5 6.6-9.1 6.6z" class="app-user-5 fill-none stroke-dark"/><circle cx="260.1" cy="53.5" r="25.5" stroke-miterlimit="10" stroke-width="13" class="app-user-6 fill-none stroke-gray-300"/><circle cx="376.5" cy="1094.7" r="22" stroke-miterlimit="10" stroke-width="13" class="app-user-6 fill-none stroke-gray-300"/><circle cx="1301.9" cy="35.4" r="18" stroke-miterlimit="10" stroke-width="13" class="app-user-6 fill-none stroke-gray-300"/></svg>