<svg xmlns="http://www.w3.org/2000/svg" xml:space="preserve" class="injected-svg js-svg-injector" data-parent="#icon23" style="enable-background:new 0 0 120 120" viewBox="0 0 120 120"><style>.icon-40-0{fill:#bdc5d1}.icon-40-2{fill:none;stroke:#bdc5d1}.icon-40-3{fill:none;stroke:#377dff}.icon-40-4{fill:#377dff}.icon-40-5{fill:#fff}</style><path d="M97 28.8h17.5c3.1 0 5.6 2.5 5.6 5.6v67.5c0 3.1-2.5 5.6-5.6 5.6H17.1c-3.1 0-5.6-2.5-5.6-5.6V34.3c0-3.1 2.5-5.6 5.6-5.6h17.5" class="icon-40-0 fill-gray-400" opacity=".4"/><path stroke-linecap="round" stroke-linejoin="round" stroke-miterlimit="10" stroke-width="3" d="M86.7 21.3h17.5c3.1 0 5.6 2.5 5.6 5.6v67.5c0 3.1-2.5 5.6-5.6 5.6H6.8c-3.1 0-5.6-2.5-5.6-5.6V26.9c0-3.1 2.5-5.6 5.6-5.6h17.5" class="fill-white stroke-gray-400" style="fill:#fff;stroke:#bdc5d1"/><path stroke-linecap="round" stroke-linejoin="round" stroke-miterlimit="10" stroke-width="3" d="M55.6 35.7h22.8" class="icon-40-2 fill-none stroke-gray-400"/><path stroke-linecap="round" stroke-linejoin="round" stroke-miterlimit="10" stroke-width="3" d="M55.6 29.4h22.8" class="icon-40-3 fill-none stroke-primary"/><path stroke-linecap="round" stroke-linejoin="round" stroke-miterlimit="10" stroke-width="3" d="M73.6 18h13.1L73.6 4.8zM24.3 73.3V4.8h49.3M86.7 18v55.3" class="icon-40-2 fill-none stroke-gray-400"/><path d="m43.5 28.8 1.9 3.8c.1.1.2.2.3.2l4.1.6c.4.1.5.5.2.8l-3 2.9v.4l.7 4.1c.1.4-.3.6-.7.5l-3.7-2c-.1-.1-.3-.1-.4 0l-3.7 2c-.3.2-.7-.1-.7-.5l.7-4.1c0-.1 0-.3-.1-.4l-3-2.9c-.3-.3-.1-.7.2-.8l4.1-.6c.1 0 .3-.1.3-.2l1.9-3.8c.3-.3.8-.3.9 0z" class="icon-40-0 fill-gray-400" opacity=".5"/><path d="m40.2 25.5 1.9 3.8c.1.1.2.2.3.2l4.1.6c.4.1.5.5.2.8l-3 2.9c-.1.1-.2.3-.1.4l.7 4.1c.1.4-.3.6-.7.5l-3.7-2c-.1-.1-.3-.1-.4 0l-3.7 2c-.3.2-.7-.1-.7-.5l.7-4.1c0-.1 0-.3-.1-.4l-3-2.9c-.3-.3-.1-.7.2-.8l4.1-.6c.1 0 .3-.1.3-.2l1.9-3.8c.4-.3.9-.3 1 0z" class="icon-40-4 fill-primary"/><path d="m39.9 30.2.5 1.1.1.1 1.2.2c.1 0 .1.1.1.2l-.8.8v.1l.2 1.2c0 .1-.1.2-.2.1l-1.1-.6h-.1l-1.1.6c-.1 0-.2 0-.2-.1l.2-1.2v-.1l-.9-.8c-.1-.1 0-.2.1-.2l1.2-.2s.1 0 .1-.1l.5-1.1c.1-.1.2-.1.2 0z" class="icon-40-5 fill-white"/><path stroke-linecap="round" stroke-linejoin="round" stroke-miterlimit="10" stroke-width="3" d="M55.6 51h22.8" class="icon-40-3 fill-none stroke-primary"/><path stroke-linecap="round" stroke-linejoin="round" stroke-miterlimit="10" stroke-width="3" d="M55.6 57.4h22.8" class="icon-40-2 fill-none stroke-gray-400"/><path d="m43.5 50.5 1.9 3.8c.1.1.2.2.3.2l4.1.6c.4.1.5.5.2.8l-3 2.9v.4l.7 4.1c.1.4-.3.6-.7.5l-3.7-2c-.1-.1-.3-.1-.4 0l-3.7 2c-.3.2-.7-.1-.7-.5l.7-4.1c0-.1 0-.3-.1-.4l-3-2.9c-.3-.3-.1-.7.2-.8l4.1-.6c.1 0 .3-.1.3-.2l1.9-3.8c.3-.4.8-.4.9 0z" class="icon-40-0 fill-gray-400" opacity=".5"/><path d="m40.2 47.2 1.9 3.8c.1.1.2.2.3.2l4.1.6c.4.1.5.5.2.8l-3 2.9c-.1.1-.2.3-.1.4l.7 4.1c.1.4-.3.6-.7.5l-3.7-2c-.1-.1-.3-.1-.4 0l-3.7 2c-.3.2-.7-.1-.7-.5l.7-4.1c0-.1 0-.3-.1-.4l-3-2.9c-.3-.3-.1-.7.2-.8l4.1-.6c.1 0 .3-.1.3-.2l1.9-3.8c.4-.4.9-.4 1 0z" class="icon-40-4 fill-primary"/><path stroke-linecap="round" stroke-linejoin="round" stroke-miterlimit="10" stroke-width="3" d="M95.3 73.3H15.7" class="icon-40-2 fill-none stroke-gray-400"/><path d="m39.9 51.8.5 1.1.1.1 1.2.2c.1 0 .1.1.1.2l-.8.8v.1l.2 1.2c0 .1-.1.2-.2.1l-1.1-.6h-.1l-1.1.6c-.1 0-.2 0-.2-.1l.2-1.2v-.1l-.9-.8c-.1-.1 0-.2.1-.2l1.2-.2s.1 0 .1-.1l.5-1.1h.2z" class="icon-40-5 fill-white"/><path stroke-linecap="round" stroke-linejoin="round" stroke-miterlimit="10" stroke-width="3" d="M1.2 83h108.6" class="icon-40-2 fill-none stroke-gray-400"/><path stroke-linecap="round" stroke-linejoin="round" stroke-miterlimit="10" stroke-width="3" d="M58.5 91.8c0 1.7-1.4 3-3 3-1.7 0-3-1.4-3-3 0-1.7 1.4-3 3-3 1.7-.1 3 1.3 3 3zM83.5 115.2H27.6" class="icon-40-3 fill-none stroke-primary"/><path d="m41.9 99.1-3.2 15.2h33.7l-3.3-15.2z" class="icon-40-4 fill-primary"/></svg>