<svg xmlns="http://www.w3.org/2000/svg" xmlns:xlink="http://www.w3.org/1999/xlink" xml:space="preserve" class="injected-svg js-svg-injector" data-parent="#SVGctaSection" style="enable-background:new 0 0 385.3 279.2" viewBox="0 0 385.3 279.2"><style>.abstract-shapes-5-2{fill:#fff}.abstract-shapes-5-4{fill:none;stroke:#00dffc}</style><defs><path id="abstractShapesID5_1" d="M0 0h385.3v279.2H0z"/></defs><clipPath id="abstractShapesID5_2"><use xlink:href="#abstractShapesID5_1" style="overflow:visible"/></clipPath><path d="M247.1 109.8c7.3 20.4 16.6 50.8 8 70.9-6.6 15.6-19 38.4-34.6 35.3-13.1-16.9-39.8-52.2-57-66-14.2-11.4-36-23.2-49.8-35.6C79.5 83.6 66.3 41.8 47.3 0 81.9 3.5 116.1 10 150 19.4c21.8 6.2 44.3 14.2 60.8 29.4 18.3 15.7 28.7 38.2 36.3 61z" class="fill-info" clip-path="url(#abstractShapesID5_2)" style="fill:#00dffc"/><g clip-path="url(#abstractShapesID5_2)"><path d="M49.4 1.8C89.7 21 126.8 46 158.5 76.9c34.4 34 57.5 73.9 83.3 113.8.4 1.2 2.7 0 1.6-1.2C199.2 107 137 37.4 49.4.6c0 .1-.8.5 0 1.2z" class="abstract-shapes-5-2 fill-white"/><path d="M72.8 54.3c27.8-1.6 52-.4 76.3 14.9 1.6 1.2 3.1-1.6 1.6-2.7-21.5-14.1-52.8-22.7-78.2-14.1-.8.7-.8 1.9.3 1.9zM116.2 100.4c13.3 0 26.2-.4 39.1 2.7 11.7 2.7 23.1 7 34.8 11.3 1.6.4 2-1.6.4-2.7-23.5-8.6-50.1-18.8-75.1-12.5.5.8.5 1.2.8 1.2zM167.9 141.5c9 .4 18.8 1.6 27.8 3.1 10.6 2 17.6 7.4 24.6 15.6 1.2 1.2 3.1-.4 2-2-6.3-7.4-12.9-12.9-23.1-15.6-10.2-2-21.1-2.7-31.7-2 0-.3 0 .9.4.9z" class="abstract-shapes-5-2 fill-white"/><path d="M129.9 22.2c.4 10.2 5.9 20.3 9.8 29.7 2.7 5.9 4.7 16 12.5 17.2.4 0 1.2-.4.4-1.2-12.9-10.6-13.3-31.7-21.9-45.8 0-.7-.8-.7-.8.1zM171.8 34.3c2.7 27.8 11.3 55.1 21.1 81 .4 1.2 2.7.4 2-.4-10.2-26.2-15.6-53.2-21.9-80.6-.4-.4-1.2-.4-1.2 0zM216.8 93c0 23.5 5.9 47.7 9.8 70.8.4 1.6 3.1 1.2 2.7-.4-4.3-23.5-7.4-46.5-11.3-70.4-.1-1.2-1.2-1.2-1.2 0z" class="abstract-shapes-5-2 fill-white"/></g><path d="M366.9 378.4c-33.4-4.4-66.3-9-94-31.6-20-16.3-33.8-39.8-38.6-65.1-6.4-33.3 3.8-73-17.3-102.3-11.3-15.7-29.2-24.8-48.6-24.6-50.2.5-69.4 46.8-76.3 89.6-8 50.3-5.9 105.4-51.5 138.9-26.9 19.8-68.1 24.9-88.3 54C-77.2 480-26.6 522 7 541.4c30.4 17.6 60.7 33.5 93.9 45.2 17.3 6.1 35.9 9.9 53.9 6.7 44.3-8.1 44.1-54.1 66.3-84.3 11.8-16.1 28.7-26.7 48-31.4 35.2-8.6 72.4-3.4 107.9-.7 34 2.6 79.4-19 67.5-60.6-5.5-19.1-23.6-28.7-41.9-32.4-11.8-2.3-23.8-3.9-35.7-5.5z" class="fill-warning" clip-path="url(#abstractShapesID5_2)" style="fill:#ffc107"/><linearGradient id="abstractShapesID5_3" x1="1924.189" x2="2331.603" y1="147.911" y2="147.911" gradientTransform="rotate(142.902 1140.442 -60.738)" gradientUnits="userSpaceOnUse"><stop class="stop-color-primary" offset="0" style="stop-color:#377dff"/><stop class="stop-color-indigo" offset="1" style="stop-color:#2d1582"/></linearGradient><path fill="url(#abstractShapesID5_3)" d="M226.1 178.5c60.5-44.6 146.8-.3 143.9 74.9 0 1-.1 2-.1 2.9-5.7 95 128.3 111.4 51.9 156.6s5.1 77-71.6 107.4c-76.8 30.4-120.3 93.2-214.1-12.1C50.7 412.3-13.8 450.3 2.5 368.6c3-15.2 4.9-30.7 4.9-46.2.1-25.7 12.8-71.2 95.6-89.1 54.1-11.6 94.8-34 123.1-54.8z" class="abstract-shapes-5-4 fill-none stroke-info" clip-path="url(#abstractShapesID5_2)"/><linearGradient id="abstractShapesID5_4" x1="1924.189" x2="2331.603" y1="147.911" y2="147.911" gradientTransform="rotate(142.902 1140.442 -60.738)" gradientUnits="userSpaceOnUse"><stop class="stop-color-primary" offset="0" style="stop-color:#377dff"/><stop class="stop-color-indigo" offset="1" style="stop-color:#2d1582"/></linearGradient><path fill="url(#abstractShapesID5_4)" d="M226.1 178.5c60.5-44.6 146.8-.3 143.9 74.9 0 1-.1 2-.1 2.9-5.7 95 128.3 111.4 51.9 156.6s5.1 77-71.6 107.4c-76.8 30.4-120.3 93.2-214.1-12.1C50.7 412.3-13.8 450.3 2.5 368.6c3-15.2 4.9-30.7 4.9-46.2.1-25.7 12.8-71.2 95.6-89.1 54.1-11.6 94.8-34 123.1-54.8z" clip-path="url(#abstractShapesID5_2)"/><path stroke-miterlimit="10" stroke-width="3" d="M340 48.2c-.1-1.9-1-3.6-2.5-4.7-2.3-1.7-6.1-2.2-11.4 5.5-8.4 12.2-.5 11.7.6 11.6h.3l7.3-.5c3.5-.2 6.2-3.3 6-6.8l-.3-5.1z" class="abstract-shapes-5-4 fill-none stroke-info" clip-path="url(#abstractShapesID5_2)"/></svg>