<svg xmlns="http://www.w3.org/2000/svg" xmlns:xlink="http://www.w3.org/1999/xlink" xml:space="preserve" class="injected-svg js-svg-injector" data-parent="#SVGctaSection" style="enable-background:new 0 0 384.1 283.3" viewBox="0 0 384.1 283.3"><style>.abstract-shapes-8-2{fill:none;stroke:#00dffc}</style><defs><path id="abstractShapesID8_1" d="M0 0h384.1v283.3H0z"/></defs><clipPath id="abstractShapesID8_2"><use xlink:href="#abstractShapesID8_1" style="overflow:visible"/></clipPath><path d="M-160.5-53c29.5-3.9 58.5-7.9 82.9-27.9 17.7-14.4 29.8-35.1 34.1-57.5 5.6-29.4-3.4-64.4 15.2-90.2 10-13.8 25.8-21.8 42.9-21.7 44.3.4 61.3 41.3 67.3 79.1 7.1 44.4 5.2 93 45.4 122.6 23.8 17.5 60.1 21.9 77.9 47.6 26.1 37.6-18.6 74.7-48.2 91.9-26.8 15.5-53.5 29.6-82.8 39.9-15.2 5.4-31.6 8.8-47.5 5.9-39-7.1-38.9-47.7-58.5-74.4-10.4-14.2-25.3-23.6-42.4-27.7-31-7.6-63.8-3-95.2-.6-30 2.3-70.1-16.7-59.5-53.5 4.8-16.8 20.8-25.3 36.9-28.6 10.4-2.1 21-3.5 31.5-4.9z" class="fill-info" clip-path="url(#abstractShapesID8_2)" style="fill:#00dffc"/><path d="M369.1 21.5c-14.7-73.5-31.3-154.9-83.3-212.2-65.3-72-161.9-133.7-254.4-163.2-47-15-86 2.5-110.9 44.3-16 27-22.7 58.9-40.6 84.6-15.9 22.8-39.2 42.2-46.9 69.9-8.5 30.5 9.6 62.6 30.7 83.4 17.8 17.6 39.5 29.4 64.9 30.3 8.4.3 17.5-.9 27-2.6 42-7.5 90.3-24.9 102.6 33.2 5 23.8-6.2 42.3-17.3 62.5-13.7 24.7-22.3 55.9-14.8 83.9 7.5 28.2 36.2 56.4 66.7 40.8 35.1-18 43.6-64.2 82.1-79.3 24.1-9.4 45.7 1.1 63 18.9 11 11.4 19.3 25.2 26.5 39.4 16.5 32.6 49.9 60.7 86.9 35.6 53.3-36 28-118.9 17.8-169.5z" class="fill-warning" clip-path="url(#abstractShapesID8_2)" style="fill:#ffc107"/><circle cx="193.8" cy="257.8" r="14.4" stroke-miterlimit="10" stroke-width="3" class="abstract-shapes-8-2 fill-none stroke-info" clip-path="url(#abstractShapesID8_2)"/><circle cx="202.8" cy="220" r="5.4" stroke-miterlimit="10" stroke-width="2" class="abstract-shapes-8-2 fill-none stroke-info" clip-path="url(#abstractShapesID8_2)"/></svg>