<svg xmlns="http://www.w3.org/2000/svg" xml:space="preserve" class="injected-svg js-svg-injector" data-parent="#SVGhouseAgency" style="enable-background:new 0 0 925.4 1059.7" viewBox="0 0 925.4 1059.7"><style>.support-man-0{fill:none;stroke:#e7eaf3}.support-man-2{fill:none;stroke:#1e2022}.support-man-3{fill:#377dff}.support-man-4{fill:#e7eaf3}.support-man-5{fill:#1e2022}</style><path stroke-linecap="round" stroke-linejoin="round" stroke-width="7" d="M485 983.3v-478M577.7 960.7l-66.2 88.1M673.6 833.9l-73.1 97.2" class="support-man-0 fill-none stroke-gray-300"/><path stroke-linecap="round" stroke-linejoin="round" stroke-width="2.5" d="m319.3 981.8-12.7 75.6-120.6-19.2 95.4-18.5 8-42.9M583.3 910.1l43.6 63-99.8 70.4 55.4-79.8-24.1-36.3" class="support-man-2 fill-none stroke-dark"/><path d="M418.6 736.7c-1.4 7.3 120.3 201.2 130 201.2 12.5 0 41.2-21.3 41.2-27.3S535 764.9 535 741.3s-104.4-67-116.4-4.6z" class="support-man-3 fill-primary"/><path stroke-linecap="round" stroke-linejoin="round" stroke-width="7" d="M397 1037.3v-532" class="support-man-0 fill-none stroke-gray-300"/><path d="m767.218 858.284 125.39-532.005 32.703 7.707-125.39 532.006z" class="support-man-4 fill-gray-300"/><path d="m493.826 794.048 7.708-32.703 306.005 72.124-7.708 32.702z" class="support-man-4 fill-gray-300"/><path stroke-linecap="round" stroke-linejoin="round" stroke-width="2.5" d="M617.8 475.3C636 393.1 676 298.6 749.2 269.9M817.5 265.3c30.5 12.2 43.5 49.9 43.5 78 0 157-32.3 314.1-51 326-33 21-187.1-29-201-62-4.1-9.8-4.9-37.4-1-73.1M749.2 269.9c1-12.6 1.1-25.3.5-38" class="support-man-2 fill-none stroke-dark"/><path stroke-linecap="round" stroke-linejoin="round" stroke-width="2.5" d="M806 185.3c-1 6 1 57 15 89-3.1 4.9-21.6 13.6-40.5 15.4M785.4 183.8c-8.2 29.7-26.6 50.4-47.9 50.4-29 0-52.5-38.3-52.5-85.5 0-7.5.6-15.1 1.8-22.5" class="support-man-2 fill-none stroke-dark"/><path stroke-linecap="round" stroke-linejoin="round" stroke-width="2.5" d="M667.5 124.1c-38.6-8.3-44.5-38.9-44.5-50.9 0-37 33-38 47-46 15.9-9.1 28-26 51-26 22 0 38.5 21 52 28 23 12 78 10 78 52 0 30-11 38-11 52 0 8 2 11 2 27 0 18.3-16 28.3-27.3 30.5" class="support-man-2 fill-none stroke-dark"/><path stroke-linecap="round" stroke-linejoin="round" stroke-width="2.5" d="M781.5 139.3c10.2 0 18.5 8.3 18.5 18.5s-8.3 18.5-18.5 18.5M729.5 457.3c-5.6 13.4-14 37-15.5 59-15-6-159-71-186-71-53 0-67 17-67 25 0 15 65 13 74 18s187 121 209 121c19.9 0 66.7-76.7 77-108.5" class="support-man-2 fill-none stroke-dark"/><path stroke-linecap="round" stroke-linejoin="round" stroke-width="2.5" d="M846.3 469.8c-5.8 18.5-12.9 31.2-19.3 31.5-22 1-102-41-108-54-4-8.6 26-68.5 60.7-101.7" class="support-man-2 fill-none stroke-dark"/><path d="M0 492.3h510v20H0z" class="support-man-4 fill-gray-300"/><path stroke-linecap="round" stroke-linejoin="round" stroke-width="7" d="M31 1037.3v-532M123 983.3v-478" class="support-man-0 fill-none stroke-gray-300"/><path d="M374 481.3h115v11H374z" class="support-man-5 fill-dark"/><path d="m320.077 340.333 3.108-1.11L375.85 486.71l-3.108 1.11z" class="support-man-5 fill-dark"/><path stroke-linecap="round" stroke-linejoin="round" stroke-width="7" d="m747.3 846.8 69.7 209.4M565.2 808.3l-160.4 213.3M642.2 827.9l69.8 209.4" class="support-man-0 fill-none stroke-gray-300"/><path d="M802.1 672.5C757.5 683.8 622 638.1 609 607.3c-1-2.5-1.6-5.2-2-7.8-58.9-15.2-122.3-26.3-177.5-26.3-90.8 0-165 397.4-165 404.3 7.3 2.1 56.5 9 56.5 9s123.4-251.8 126.8-268.9c12.4 8.6 168.9 89.9 229.3 89.9 66.2 0 128.3-68 128.3-130.6-.1-1.2-1.2-2.6-3.3-4.4z" class="support-man-3 fill-primary"/><path d="M802.1 672.5C757.5 683.8 622 638.1 609 607.3c-1-2.5-1.6-5.2-2-7.8-58.9-15.2-122.3-26.3-177.5-26.3-90.8 0-165 397.4-165 404.3 7.3 2.1 56.5 9 56.5 9s123.4-251.8 126.8-268.9c12.4 8.6 168.9 89.9 229.3 89.9 66.2 0 128.3-68 128.3-130.6-.1-1.2-1.2-2.6-3.3-4.4z" class="fill-white" opacity=".05" style="fill:#fff"/><circle cx="710.7" cy="147.4" r="3.8"/><path stroke-linecap="round" stroke-miterlimit="10" stroke-width="4.41" d="M722.5 198.6c-4.4 1.9-9.2 3.4-13.9 4.1" class="support-man-2 fill-none stroke-dark"/></svg>