<svg xmlns="http://www.w3.org/2000/svg" xml:space="preserve" class="injected-svg js-svg-injector" data-parent="#icon24" style="enable-background:new 0 0 120 120" viewBox="0 0 120 120"><style>.icon-7-0{fill:none;stroke:#fff}.icon-7-3{fill:none;stroke:#bdc5d1}.icon-7-4{fill:none;stroke:#377dff}</style><path d="M112.1 8.4H22.7c-3.4 0-6.1 2.8-6.1 6.1v23.4c0 3.4 2.8 6.1 6.1 6.1h5.1v10l15.7-10h13.6l10.3 10.3L77.8 44h13.6L107 54V44h5.1c3.4 0 6.1-2.8 6.1-6.1V14.5c0-3.4-2.7-6.1-6.1-6.1z" class="fill-gray-400" opacity=".5" style="fill:#bdc5d1"/><path d="M104.7 2.6H15.3c-3.4 0-6.1 2.8-6.1 6.1v23.4c0 3.4 2.8 6.1 6.1 6.1h5.1v10l15.7-10h13.6L60 48.6l10.3-10.3h13.6l15.7 10v-10h5.1c3.4 0 6.1-2.8 6.1-6.1V8.7c0-3.3-2.7-6.1-6.1-6.1z" class="fill-primary" style="fill:#377dff"/><path stroke-linecap="round" stroke-linejoin="round" stroke-miterlimit="10" stroke-width="3" d="M106.4 76.8c.4-1.2.6-2.6.6-3.9 0-6.6-4.7-11.5-10.5-11.5S86 66.3 86 72.9c0 1.4.2 2.7.6 3.9-.8.5-1.4 1.5-1.4 2.6 0 1.4.9 2.6 2.2 3 1.5 4.5 5 7.7 9.1 7.7s7.6-3.2 9.1-7.7c1.3-.4 2.2-1.5 2.2-3-.1-1.1-.6-2-1.4-2.6z" class="icon-7-3 fill-none stroke-gray-400"/><path stroke-linecap="round" stroke-linejoin="round" stroke-miterlimit="10" stroke-width="3" d="m101.6 71-.5-2.6s-1.1 0-2.9 1.6c-3.7 3.4-7.9.7-7.9.7M105.6 95.9l10 4.2c1.9.9 2.6 2.8 2.6 4.7v7.2" class="icon-7-3 fill-none stroke-gray-400"/><path stroke-linecap="round" stroke-linejoin="round" stroke-miterlimit="10" stroke-width="3" d="m96.6 97.4 3.8 4.4 5.2-5.7-2.2-3.9" class="icon-7-4 fill-none stroke-primary"/><path stroke-linecap="round" stroke-linejoin="round" stroke-miterlimit="10" stroke-width="3" d="m87.5 95.9-9.8 4c-.6.4-1.1.9-1.6 1.5-.7.9-1 2-1 3.2v7.4" class="icon-7-3 fill-none stroke-gray-400"/><path stroke-linecap="round" stroke-linejoin="round" stroke-miterlimit="10" stroke-width="3" d="m96.6 97.4-3.9 4.4-5.2-5.7 2.2-3.9M103.4 92.2l-6.8 5.2M89.7 92.2l6.9 5.2" class="icon-7-4 fill-none stroke-primary"/><path stroke-linecap="round" stroke-linejoin="round" stroke-miterlimit="10" stroke-width="3" d="M118.2 112c-6.1 3.4-13.5 5.4-21.5 5.4s-15.4-2-21.5-5.4M69.7 70.2c.4-1.2.6-2.6.6-3.9 0-6.6-4.7-11.5-10.5-11.5s-10.5 4.9-10.5 11.5c0 1.4.2 2.7.6 3.9-.8.5-1.4 1.5-1.4 2.6 0 1.4.9 2.6 2.2 3 1.5 4.5 5 7.7 9.1 7.7s7.6-3.2 9.1-7.7c1.3-.4 2.2-1.5 2.2-3 0-1.1-.6-2.1-1.4-2.6z" class="icon-7-3 fill-none stroke-gray-400"/><path stroke-linecap="round" stroke-linejoin="round" stroke-miterlimit="10" stroke-width="3" d="m65 64.4-.5-2.6s-1.1 0-2.9 1.6c-3.7 3.4-7.9.7-7.9.7M68.9 89.3l10 4.2c1.9.9 2.6 2.8 2.6 4.7" class="icon-7-3 fill-none stroke-gray-400"/><path stroke-linecap="round" stroke-linejoin="round" stroke-miterlimit="10" stroke-width="3" d="m59.9 90.8 3.9 4.3 5.2-5.6-2.3-3.9" class="icon-7-4 fill-none stroke-primary"/><path stroke-linecap="round" stroke-linejoin="round" stroke-miterlimit="10" stroke-width="3" d="m50.9 89.3-9.8 4c-.6.4-1.1.9-1.6 1.5-.7.9-1 2-1 3.2" class="icon-7-3 fill-none stroke-gray-400"/><path stroke-linecap="round" stroke-linejoin="round" stroke-miterlimit="10" stroke-width="3" d="M59.9 90.8 56 95.1l-5.2-5.6 2.3-3.9M66.7 85.6l-6.8 5.2M53.1 85.6l6.8 5.2" class="icon-7-4 fill-none stroke-primary"/><path stroke-linecap="round" stroke-linejoin="round" stroke-miterlimit="10" stroke-width="3" d="M75.2 108.2c-4.6 1.6-9.8 2.5-15.2 2.5-5.5 0-10.6-.9-15.3-2.6M33 76.8c.4-1.2.6-2.6.6-3.9 0-6.6-4.7-11.5-10.5-11.5s-10.5 4.9-10.5 11.5c0 1.4.2 2.7.6 3.9-.8.5-1.4 1.5-1.4 2.6 0 1.4.9 2.6 2.2 3 1.5 4.5 5 7.7 9.1 7.7s7.6-3.2 9.1-7.7c1.3-.4 2.2-1.5 2.2-3 0-1.1-.6-2-1.4-2.6z" class="icon-7-3 fill-none stroke-gray-400"/><path stroke-linecap="round" stroke-linejoin="round" stroke-miterlimit="10" stroke-width="3" d="m28.3 71-.5-2.6s-1.1 0-2.9 1.6c-3.7 3.4-7.9.7-7.9.7M32.2 95.9l10 4.2c1.9.9 2.6 2.8 2.6 4.7v7.2" class="icon-7-3 fill-none stroke-gray-400"/><path stroke-linecap="round" stroke-linejoin="round" stroke-miterlimit="10" stroke-width="3" d="m23.2 97.4 3.9 4.4 5.2-5.7-2.2-3.9" class="icon-7-4 fill-none stroke-primary"/><path stroke-linecap="round" stroke-linejoin="round" stroke-miterlimit="10" stroke-width="3" d="m14.2 95.9-9.8 4c-.6.4-1.1.9-1.6 1.5-.7.9-1 2-1 3.2v7.4" class="icon-7-3 fill-none stroke-gray-400"/><path stroke-linecap="round" stroke-linejoin="round" stroke-miterlimit="10" stroke-width="3" d="m23.2 97.4-3.8 4.4-5.2-5.7 2.2-3.9M30.1 92.2l-6.9 5.2M16.4 92.2l6.8 5.2" class="icon-7-4 fill-none stroke-primary"/><path stroke-linecap="round" stroke-linejoin="round" stroke-miterlimit="10" stroke-width="3" d="M44.8 112c-6.1 3.4-13.5 5.4-21.5 5.4s-15.4-2-21.5-5.4" class="icon-7-3 fill-none stroke-gray-400"/><path stroke-linecap="round" stroke-linejoin="round" stroke-miterlimit="10" stroke-width="3" d="M60.4 9.1 49.2 25.8h10.3L58.1 37l12.7-17H59.5z" class="icon-7-0 fill-none stroke-white"/><g opacity=".5"><path stroke-linecap="round" stroke-linejoin="round" stroke-miterlimit="10" stroke-width="3" d="M81.6 14.6h15.1M81.6 21.2h15.1M81.6 27.8h6.2M23.3 14.6h15.1M23.3 21.2h15.1M23.3 27.8h6.2" class="icon-7-0 fill-none stroke-white"/></g></svg>